# xmcd
# Track frame offsets:
# 150
# 14250
# 29483
# 48125
# 65225
# 79772
# 96035
# 112385
# 126932
#
# Disc length: 1877 seconds
# Revision: 0
# Processed by: cddbd v1.5.1PL0 Copyright (c) Steve Scherf et al.
# Submitted via: VisiTrax 2.9.10.228 - For more info visit www.synapsa.com
#
DISCID=7a075309
DTITLE=Various Artist - Hits Monthly Nashville  PHN0206
DYEAR=1900
DGENRE=Karaoke
TTITLE0=Byrd, Tracy - Ten Rounds With Jose Cuervo
TTITLE1=SheDaisy - Get Over Yourself
TTITLE2=Nolen, Gabbie - Almost There
TTITLE3=Shelton, Blake - Ol' Red
TTITLE4=Griggs, Andy - Tonight I Wanna Be Your Man
TTITLE5=Worley, Darryl - I Miss My Friend
TTITLE6=Diffie, Joe - This Pretender
TTITLE7=Paisley, Brad - I'm Gonna Miss Her
TTITLE8=Emerson Drive - I Should Be Sleeping
EXTD=
EXTT0=
EXTT1=
EXTT2=
EXTT3=
EXTT4=
EXTT5=
EXTT6=
EXTT7=
EXTT8=
PLAYORDER=
